<svg xmlns="http://www.w3.org/2000/svg" viewBox="0 0 203.72 207.53"><defs><style>.cls-1{fill:#010101;}.cls-2{fill:#fff;}.cls-3{fill:#010102;}</style></defs><g id="Camada_2" data-name="Camada 2"><g id="Camada_1-2" data-name="Camada 1"><path class="cls-1" d="M186.67,105.49c13.67,19.51-23.11,44.42-38.74,50.57-14.12,4.39-27-7.27-40.83-8.78C102,146,100,152.66,105.2,154c6.9,2.65,24.42,4.29,12.92,13.95-5.7,5.44-6.88,5.57-12.73.58-6-6.2-9.06,6-15,3.27-4.69-1.86-14-10.84-5.4-13.58,4-2.56,17.22-2.42,16.1-8.61-.81-3.07-3.58-2.6-5.78-2.22-8.48,1.45-16.2,5.37-24.34,8C52,165,.35,124.44,16.93,105.12c7.19-5.39,3-12.85,10.85-15.55C54.75,77.9,38,50,60.19,43.34c12.63-2.34,22,9.21,34.35,10.43,13.9,2.94,26.06-3.53,38-9.4,10.9-4.28,21.28,1.58,23.4,13.07,3.21,34.16,22,25.74,25.35,39.94C181.51,100.79,184.46,103,186.67,105.49Z"/><path class="cls-1" d="M199.43,73.14C185.62,28.06,148.25,2.39,102.17,0h-1C-17.51,3.69-39.43,168.44,76.54,201.77c13.14,4.63,26.9,8.59,40.36,3.08,43.2-10.51,81.16-43.27,86.69-88.5C203.91,104.63,204,84,199.43,73.14ZM190,112.69c-2.8,22-23.75,34.82-42,43.37-14.12,4.39-27-7.27-40.83-8.78C102,146,100,152.66,105.2,154c6.9,2.65,24.42,4.29,12.92,13.95-5.7,5.44-6.88,5.57-12.73.58-6-6.2-9.06,6-15,3.27-4.69-1.86-14-10.84-5.4-13.58,4-2.56,17.22-2.42,16.1-8.61-.81-3.07-3.58-2.6-5.78-2.22-15.42,2.58-30.75,15.44-46.15,5.85-14.32-7.78-45.54-29.72-32.2-48.12,2.92-2.92,5.4-6.1,5.71-10.64.19-2.74,2.94-3.83,5.14-4.91C54.75,77.9,38,50,60.19,43.34c27.69-.27,28.15,24.89,72.32,1,15.19-6.17,24.53,7.5,24.72,21.38,4.36,23.72,22.36,19.92,24,31.63C181.8,103.2,190.7,106.65,190,112.69Z"/><path class="cls-2" d="M190,112.69c-2.8,22-23.75,34.82-42,43.37-14.12,4.39-27-7.27-40.83-8.78C102,146,100,152.66,105.2,154c6.9,2.65,24.42,4.29,12.92,13.95-5.7,5.44-6.88,5.57-12.73.58-6-6.2-9.06,6-15,3.27-4.69-1.86-14-10.84-5.4-13.58,4-2.56,17.22-2.42,16.1-8.61-.81-3.07-3.58-2.6-5.78-2.22-15.42,2.58-30.75,15.44-46.15,5.85-14.32-7.78-45.54-29.72-32.2-48.12,2.92-2.92,5.4-6.1,5.71-10.64.19-2.74,2.94-3.83,5.14-4.91C54.75,77.9,38,50,60.19,43.34c27.69-.27,28.15,24.89,72.32,1,15.19-6.17,24.53,7.5,24.72,21.38,4.36,23.72,22.36,19.92,24,31.63C181.8,103.2,190.7,106.65,190,112.69Z"/><path class="cls-3" d="M160.78,102.44c-.76,24.53-36.47,24.38-37-.07C124.4,77.82,160.21,78.06,160.78,102.44Z"/><path class="cls-3" d="M48.47,102.16c.66-24.48,36.58-24,36.79.45C84.42,127.07,48.77,126.82,48.47,102.16Z"/></g></g></svg>